<svg xmlns="http://www.w3.org/2000/svg" xmlns:xlink="http://www.w3.org/1999/xlink" id="Layer_1" width="55" height="55" x="0" y="0" enable-background="new -2 -2 55 55" version="1.1" viewBox="-2 -2 55 55" xml:space="preserve"><g><path fill="none" stroke="#0968B5" stroke-miterlimit="10" stroke-width="2" d="M48.939,11h-30.9C17.294,11,16,11.576,16,12.322 v18.157C16,31.223,17.294,32,18.04,32h19.129l7.552,8.717L42.916,32h6.023C49.686,32,50,31.223,50,30.479V12.322 C50,11.576,49.686,11,48.939,11z"/><path fill="none" stroke="#0968B5" stroke-miterlimit="10" stroke-width="2" d="M13.311,25.23L5.8,34.313L7.644,25H3.061 C2.314,25,2,24.503,2,23.757V5.602C2,4.856,2.314,5,3.061,5h29.46C33.266,5,34,4.856,34,5.602V8"/><circle cx="41.641" cy="22.103" r="2.599" fill="none" stroke="#19D2CC" stroke-miterlimit="10" stroke-width="1.92"/><circle cx="24.361" cy="22.103" r="2.599" fill="none" stroke="#19D2CC" stroke-miterlimit="10" stroke-width="1.92"/><circle cx="9.961" cy="14.902" r="2.599" fill="none" stroke="#19D2CC" stroke-miterlimit="10" stroke-width="1.92"/><line x1="31" x2="36" y1="23" y2="23" fill="none" stroke="#19D2CC" stroke-miterlimit="10" stroke-width="2"/></g></svg>