<svg xmlns="http://www.w3.org/2000/svg" xmlns:xlink="http://www.w3.org/1999/xlink" id="Layer_1" width="55" height="55" x="0" y="0" enable-background="new 0 0 55 55" version="1.1" viewBox="0 0 55 55" xml:space="preserve"><g><circle cx="25.696" cy="26.358" r="24" fill="none" stroke="#323232" stroke-miterlimit="10" stroke-width="2.259"/><path fill="none" stroke="#323232" stroke-miterlimit="10" stroke-width="2" d="M35,37.498C35,37.744,34.484,38,34.309,38H22.607 C22.431,38,22,37.744,22,37.498V21.117C22,20.87,22.431,21,22.607,21h11.702C34.484,21,35,20.87,35,21.117V37.498z"/><path fill="none" stroke="#323232" stroke-miterlimit="10" stroke-width="2" d="M29,18v-3.66c0-0.247-0.162-0.34-0.339-0.34H16.96 C16.784,14,17,14.094,17,14.34v16.381C17,30.968,16.784,31,16.96,31H20"/></g></svg>