<svg xmlns="http://www.w3.org/2000/svg" xmlns:xlink="http://www.w3.org/1999/xlink" id="Layer_1" width="55" height="55" x="0" y="0" enable-background="new 0 0 55 55" version="1.1" viewBox="0 0 55 55" xml:space="preserve"><path fill="none" stroke="#323232" stroke-miterlimit="10" stroke-width="2" d="M48,44H10.613C9.348,44,8,42.73,8,41.466V16.075	C8,14.81,9.348,14,10.613,14h37.418C49.296,14,50,14.81,50,16.075V38"/><path fill="none" stroke="#323232" stroke-miterlimit="10" stroke-width="2" d="M5,37H4.688C3.422,37,2,36.436,2,35.17V9.779	C2,8.514,3.422,7,4.688,7h37.417C43.37,7,44,8.514,44,9.779V11"/><circle cx="19.266" cy="28.573" r="3.935" fill="none" stroke="#969696" stroke-miterlimit="10" stroke-width="1.939"/><g><circle cx="38.895" cy="21.906" r="2.163" fill="none" stroke="#969696" stroke-miterlimit="10" stroke-width="1.939"/><line x1="22.461" x2="36.979" y1="27.002" y2="22.446" fill="none" stroke="#969696" stroke-miterlimit="10" stroke-width="1.939"/></g><g><circle cx="38.895" cy="35.579" r="2.163" fill="none" stroke="#969696" stroke-miterlimit="10" stroke-width="1.939"/><line x1="22.461" x2="36.979" y1="30.484" y2="35.04" fill="none" stroke="#969696" stroke-miterlimit="10" stroke-width="1.939"/></g></svg>