<svg xmlns="http://www.w3.org/2000/svg" xmlns:xlink="http://www.w3.org/1999/xlink" id="Layer_1" width="55" height="55" x="0" y="0" enable-background="new 0 0 55 55" version="1.1" viewBox="0 0 55 55" xml:space="preserve"><path fill="none" stroke="#323232" stroke-miterlimit="10" stroke-width="2" d="M48,44H10.613C9.348,44,8,42.73,8,41.466V16.075	C8,14.81,9.348,14,10.613,14h37.418C49.296,14,50,14.81,50,16.075V38"/><path fill="none" stroke="#969696" stroke-miterlimit="10" stroke-width="2" d="M5,37H4.688C3.422,37,2,36.436,2,35.17V9.779	C2,8.514,3.422,7,4.688,7h37.417C43.37,7,44,8.514,44,9.779V11"/><g><path fill="none" stroke="#323232" stroke-miterlimit="10" stroke-width="2" d="M35.416,35.635c1.881-1.71,3.122-4.285,3.122-7.027 c0-5.163-4.155-9.403-9.321-9.403c-5.167,0-9.462,4.161-9.462,9.326c0,5.164,4.245,9.323,9.245,9.323V28"/><polygon fill="none" stroke="#323232" stroke-miterlimit="10" stroke-width="1.939" points="28.182 29.477 29.254 27.462 30.453 29.473"/></g></svg>