<svg xmlns="http://www.w3.org/2000/svg" xmlns:xlink="http://www.w3.org/1999/xlink" id="Layer_1" width="55" height="55" x="0" y="0" enable-background="new -2 -2 55 55" version="1.1" viewBox="-2 -2 55 55" xml:space="preserve"><g><path fill="none" stroke="#0968B5" stroke-miterlimit="10" stroke-width="2" d="M48,44H10.613C9.348,44,8,42.73,8,41.466V16.075 C8,14.81,9.348,14,10.613,14h37.418C49.296,14,50,14.81,50,16.075V38"/><path fill="none" stroke="#19D2CC" stroke-miterlimit="10" stroke-width="2" d="M5,37H4.688C3.422,37,2,36.436,2,35.17V9.779 C2,8.514,3.422,7,4.688,7h37.417C43.37,7,44,8.514,44,9.779V11"/></g><g><circle cx="29.352" cy="28.258" r="9.212" fill="none" stroke="#0968B5" stroke-miterlimit="10" stroke-width="1.939"/><line x1="26" x2="28" y1="27" y2="27" fill="none" stroke="#19D2CC" stroke-miterlimit="10" stroke-width="2"/><line x1="31" x2="33" y1="27" y2="27" fill="none" stroke="#19D2CC" stroke-miterlimit="10" stroke-width="2"/><line x1="26" x2="28" y1="30" y2="30" fill="none" stroke="#19D2CC" stroke-miterlimit="10" stroke-width="2"/><line x1="31" x2="33" y1="30" y2="30" fill="none" stroke="#19D2CC" stroke-miterlimit="10" stroke-width="2"/></g></svg>