<svg xmlns="http://www.w3.org/2000/svg" xmlns:xlink="http://www.w3.org/1999/xlink" id="Layer_1" width="55" height="55" x="0" y="0" enable-background="new 0 0 55 55" version="1.1" viewBox="0 0 55 55" xml:space="preserve"><circle cx="27.5" cy="26.475" r="24" fill="none" stroke="#FFF" stroke-miterlimit="10" stroke-width="2.259"/><path fill="none" stroke="#FFF" stroke-miterlimit="10" stroke-width="2" d="M34.805,19.978c0,3.652-3.141,6.614-7,6.614l0,0	c-3.86,0-7-2.961-7-6.614v-3.857c0-3.652,3.14-6.613,7-6.613l0,0c3.859,0,7,2.961,7,6.613V19.978z"/><path fill="none" stroke="#FFF" stroke-miterlimit="10" stroke-width="2.259" d="M14.32,38.648c0-4.74,5.97-8.584,13.334-8.584	c7.364,0,13.334,3.844,13.334,8.584"/><line x1="23.805" x2="26.805" y1="17.117" y2="17.117" fill="none" stroke="#19D2CC" stroke-miterlimit="10" stroke-width="2"/><line x1="28.805" x2="31.805" y1="17.117" y2="17.117" fill="none" stroke="#19D2CC" stroke-miterlimit="10" stroke-width="2"/></svg>