<svg xmlns="http://www.w3.org/2000/svg" xmlns:xlink="http://www.w3.org/1999/xlink" id="Layer_1" width="55" height="55" x="0" y="0" enable-background="new -2 -2 55 55" version="1.1" viewBox="-2 -2 55 55" xml:space="preserve"><g><path fill="none" stroke="#0968B5" stroke-miterlimit="10" stroke-width="2" d="M48,44H10.613C9.348,44,8,42.73,8,41.466V16.075 C8,14.81,9.348,14,10.613,14h37.418C49.296,14,50,14.81,50,16.075V38"/><path fill="none" stroke="#0968B5" stroke-miterlimit="10" stroke-width="2" d="M5,37H4.688C3.422,37,2,36.436,2,35.17V9.779 C2,8.514,3.422,7,4.688,7h37.417C43.37,7,44,8.514,44,9.779V11"/><rect width="4" height="5" x="16" y="20" fill="none" stroke="#19D2CC" stroke-miterlimit="10" stroke-width="2"/><rect width="4" height="4" x="16" y="32" fill="none" stroke="#19D2CC" stroke-miterlimit="10" stroke-width="2"/><line x1="23" x2="44" y1="23" y2="23" fill="none" stroke="#0968B5" stroke-miterlimit="10" stroke-width="2"/><line x1="23" x2="44" y1="34" y2="34" fill="none" stroke="#0968B5" stroke-miterlimit="10" stroke-width="2"/></g></svg>