<svg xmlns="http://www.w3.org/2000/svg" xmlns:xlink="http://www.w3.org/1999/xlink" id="Layer_1" width="55" height="55" x="0" y="0" enable-background="new -2 -2 55 55" version="1.1" viewBox="-2 -2 55 55" xml:space="preserve"><g><path fill="none" stroke="#0968B5" stroke-miterlimit="10" stroke-width="2.079" d="M49.771,30.55 c0,13.257-10.746,17.308-24,17.308c-13.254,0-24-4.051-24-17.308c0-13.254,10.746-24,24-24C39.023,6.55,49.771,17.296,49.771,30.55 z"/><path fill="none" stroke="#0968B5" stroke-miterlimit="10" stroke-width="2.079" d="M40.38,29.143 c0,8.069-6.54,4.146-14.609,4.146s-14.61,3.925-14.61-4.146c0-8.068,6.541-14.609,14.61-14.609S40.38,21.074,40.38,29.143z"/><circle cx="5.831" cy="6.769" r="3.472" fill="none" stroke="#0968B5" stroke-miterlimit="10" stroke-width="2.079"/><circle cx="45.957" cy="6.769" r="3.472" fill="none" stroke="#0968B5" stroke-miterlimit="10" stroke-width="2.079"/><path fill="none" stroke="#19D2CC" stroke-miterlimit="10" stroke-width="2.079" d="M16.123,27.135c0,0,3.284-2.918,5.838,0"/><path fill="none" stroke="#19D2CC" stroke-miterlimit="10" stroke-width="2.079" d="M29.259,27.135c0,0,3.284-2.918,5.839,0"/></g></svg>