<svg xmlns="http://www.w3.org/2000/svg" xmlns:xlink="http://www.w3.org/1999/xlink" id="Layer_1" width="807.76" height="687.244" x="0" y="0" enable-background="new 0 0 807.76 687.244" version="1.1" viewBox="0 0 807.76 687.244" xml:space="preserve"><g><path fill="none" stroke="#878787" stroke-miterlimit="10" stroke-width="47" d="M540.063,381.989 c0,75.909-61.27,137.458-141.5,137.458l0,0c-80.231,0-141.5-61.549-141.5-137.458V251.803c0-75.911,61.268-137.458,141.5-137.458 l0,0c80.23,0,141.5,61.547,141.5,137.458V381.989z"/><line x1="316.563" x2="375.563" y1="275.064" y2="275.064" fill="none" stroke="#878787" stroke-miterlimit="10" stroke-width="47"/><line x1="421.563" x2="480.563" y1="275.064" y2="275.064" fill="none" stroke="#878787" stroke-miterlimit="10" stroke-width="47"/></g><path fill="none" stroke="#878787" stroke-miterlimit="10" stroke-width="47" d="M191.618,246.698	c0-110.387,89.485-199.634,199.871-199.634h14.148c110.386,0,199.87,89.366,199.87,199.753"/><path fill="none" stroke="#878787" stroke-miterlimit="10" stroke-width="47" d="M213.563,406.064H163.61	c-10.313,0-18.547-8.406-18.547-18.718V264.425c0-10.313,8.234-18.36,18.547-18.36h49.953"/><path fill="none" stroke="#878787" stroke-miterlimit="10" stroke-width="47" d="M583.563,246.064h49.953	c10.313,0,18.547,8.048,18.547,18.36v122.923c0,10.312-8.234,18.718-18.547,18.718h-49.791H393.563"/><g><path fill="none" stroke="#878787" stroke-miterlimit="10" stroke-width="47.654" d="M117.222,645.479 c0-100.008,125.942-127.088,281.308-127.088s281.308,27.08,281.308,127.088"/></g></svg>